{"title":"G I BLUES[ELVIS COLLECTION]-1960@ H.264 TF-KC RELEASE BY THE_STI","uid":5020185,"size":986457029,"categoryP":"video","categoryS":"handheld","magnet":"?xt=urn:btih:dcfe9b51ee1029f555d1902cfdefe52fadf719ca&amp;dn=G+I+BLUES%5BELVIS+COLLECTION%5D-1960%40+H.264+TF-KC+RELEASE+BY+THE_STI&amp;tr=udp%3A%2F%2Ftracker.openbittorrent.com%3A80&amp;tr=udp%3A%2F%2Fopen.demonii.com%3A1337&amp;tr=udp%3A%2F%2Ftracker.coppersurfer.tk%3A6969&amp;tr=udp%3A%2F%2Fexodus.desync.com%3A6969","seeders":0,"leechers":2,"uploader":"alanwatson","files":-1,"time":1248427675,"description":"The year was 1960. A payola scandal shocks the music world. Movie fans are introduced to glorious Smell-O-Vision. The 50-star flag is adopted. And in G.I. Blues, Elvis adopts an on-screen persona he knows well in real life - a singin' G.I. in West Germany. Eager to open a stateside nightclub after his hitch in khakis, he takes part in a wager to raise the dough he needs. The bet: he can melt the heart of a willowy dancer (Juliet Prowse). But all bets may be off when real love intervenes...\n\nFormat : MPEG-4\nFormat profile : Base Media / Version 2\nCodec ID : mp42\nFile size : 900 MiB\nDuration : 1h 39mn\nOverall bit rate : 1 263 Kbps\nEncoded date : UTC 2009-07-23 05:58:54\nTagged date : UTC 2009-07-23 11:18:10\nWriting application : HandBrake 0.9.3 2008112300\n\nVideo\nID : 1\nFormat : AVC\nFormat/Info : Advanced Video Codec\nFormat profile : &lt;a class=&quot;__cf_email__&quot; href=&quot;/cdn-cgi/l/email-protection&quot; data-cfemail=&quot;175a767e79575b233927&quot;&gt;[email&amp;#160;protected]&lt;/a&gt;&lt;script cf-hash='f9e31' type=&quot;text/javascript&quot;&gt;\n/* &lt;![CDATA[ */!function(){try{var t=&quot;currentScript&quot;in document?document.currentScript:function(){for(var t=document.getElementsByTagName(&quot;script&quot;),e=t.length;e--;)if(t[e].getAttribute(&quot;cf-hash&quot;))return t[e]}();if(t&amp;&amp;t.previousSibling){var e,r,n,i,c=t.previousSibling,a=c.getAttribute(&quot;data-cfemail&quot;);if(a){for(e=&quot;&quot;,r=parseInt(a.substr(0,2),16),n=2;a.length-n;n+=2)i=parseInt(a.substr(n,2),16)^r,e+=String.fromCharCode(i);e=document.createTextNode(e),c.parentNode.replaceChild(e,c)}}}catch(u){}}();/* ]]&gt; */&lt;/script&gt;\nFormat settings, CABAC : Yes\nFormat settings, ReFrames : 3 frames\nCodec ID : avc1\nCodec ID/Info : Advanced Video Coding\nDuration : 1h 39mn\nBit rate mode : Variable\nBit rate : 1 099 Kbps\nWidth : 714 pixels\nHeight : 576 pixels\nDisplay aspect ratio : 16/9\nFrame rate mode : Variable\nFrame rate : 25.000 fps\nMinimum frame rate : 12.500 fps\nMaximum frame rate : 25.000 fps\nResolution : 24 bits\nColorimetry : 4:2:0\nScan type : Progressive\nBits/(Pixel*Frame) : 0.107\nStream size : 783 MiB (87%)\nWriting library : x264 core 65\n\n\nAudio\nID : 2\nFormat : AAC\nFormat/Info : Advanced Audio Codec\nFormat version : Version 4\nFormat profile : LC\nFormat settings, SBR : No\nCodec ID : 40\nDuration : 1h 39mn\nBit rate mode : Variable\nBit rate : 160 Kbps\nMaximum bit rate : 202 Kbps\nChannel(s) : 2 channels\nChannel positions : L R\nSampling rate : 48.0 KHz\nResolution : 16 bits\nStream size : 114 MiB (13%)\nLanguage : English\nEncoded date : UTC 2009-07-23 05:58:55\nTagged date : UTC 2009-07-23 11:18:08\n\n","torrent":{"xt":"urn:btih:dcfe9b51ee1029f555d1902cfdefe52fadf719ca","amp;dn":"G+I+BLUES%5BELVIS+COLLECTION%5D-1960%40+H.264+TF-KC+RELEASE+BY+THE_STI","amp;tr":["udp%3A%2F%2Ftracker.openbittorrent.com%3A80","udp%3A%2F%2Fopen.demonii.com%3A1337","udp%3A%2F%2Ftracker.coppersurfer.tk%3A6969","udp%3A%2F%2Fexodus.desync.com%3A6969"],"infoHash":"dcfe9b51ee1029f555d1902cfdefe52fadf719ca","infoHashBuffer":{"type":"Buffer","data":[220,254,155,81,238,16,41,245,85,209,144,44,253,239,229,47,173,247,25,202]},"announce":[],"urlList":[]}}